HIERARCHY
ROOT mixamorig:Hips
{
	OFFSET -0.000008 104.274872 1.554316
	CHANNELS 6 Xposition Yposition Zposition Xrotation Yrotation Zrotation
	JOINT mixamorig:Spine
	{
		OFFSET -0.000005 10.181595 0.131519
		CHANNELS 6 Xposition Yposition Zposition Xrotation Yrotation Zrotation
		JOINT mixamorig:Spine1
		{
			OFFSET -0.000000 9.893959 -1.470707
			CHANNELS 6 Xposition Yposition Zposition Xrotation Yrotation Zrotation
			JOINT mixamorig:Spine2
			{
				OFFSET -0.000000 9.220757 -1.370641
				CHANNELS 6 Xposition Yposition Zposition Xrotation Yrotation Zrotation
				JOINT mixamorig:Neck
				{
					OFFSET 0.000001 16.740417 -2.049036
					CHANNELS 6 Xposition Yposition Zposition Xrotation Yrotation Zrotation
					JOINT mixamorig:Head
					{
						OFFSET 0.000000 9.617874 1.685006
						CHANNELS 6 Xposition Yposition Zposition Xrotation Yrotation Zrotation
						JOINT mixamorig:HeadTop_End
						{
							OFFSET 0.000002 22.037354 7.501101
							CHANNELS 6 Xposition Yposition Zposition Xrotation Yrotation Zrotation
							End Site
							{
								OFFSET 0.000168 2310.654297 -282.823242
							}
						}
					}
				}
				JOINT mixamorig:RightShoulder
				{
					OFFSET -4.569970 11.014908 -2.160885
					CHANNELS 6 Xposition Yposition Zposition Xrotation Yrotation Zrotation
					JOINT mixamorig:RightArm
					{
						OFFSET -10.592851 -0.524811 -2.232101
						CHANNELS 6 Xposition Yposition Zposition Xrotation Yrotation Zrotation
						JOINT mixamorig:RightForeArm
						{
							OFFSET -27.841511 0.000031 -0.000004
							CHANNELS 6 Xposition Yposition Zposition Xrotation Yrotation Zrotation
							JOINT mixamorig:RightHand
							{
								OFFSET -28.328831 -0.000015 0.000015
								CHANNELS 6 Xposition Yposition Zposition Xrotation Yrotation Zrotation
								JOINT mixamorig:RightHandThumb1
								{
									OFFSET -2.464806 -1.573990 2.681852
									CHANNELS 6 Xposition Yposition Zposition Xrotation Yrotation Zrotation
									JOINT mixamorig:RightHandThumb2
									{
										OFFSET -3.215179 -1.872803 1.924282
										CHANNELS 6 Xposition Yposition Zposition Xrotation Yrotation Zrotation
										JOINT mixamorig:RightHandThumb3
										{
											OFFSET -2.654831 -1.527969 1.512609
											CHANNELS 6 Xposition Yposition Zposition Xrotation Yrotation Zrotation
											JOINT mixamorig:RightHandThumb4
											{
												OFFSET -2.018814 -1.152008 1.108052
												CHANNELS 6 Xposition Yposition Zposition Xrotation Yrotation Zrotation
												End Site
												{
													OFFSET -188.809540 -114.533607 132.431396
												}
											}
										}
									}
								}
								JOINT mixamorig:RightHandIndex1
								{
									OFFSET -9.108284 -0.517868 2.259835
									CHANNELS 6 Xposition Yposition Zposition Xrotation Yrotation Zrotation
									JOINT mixamorig:RightHandIndex2
									{
										OFFSET -3.699989 0.000000 0.001215
										CHANNELS 6 Xposition Yposition Zposition Xrotation Yrotation Zrotation
										JOINT mixamorig:RightHandIndex3
										{
											OFFSET -2.850006 0.000031 -0.000522
											CHANNELS 6 Xposition Yposition Zposition Xrotation Yrotation Zrotation
											JOINT mixamorig:RightHandIndex4
											{
												OFFSET -2.772186 -0.000015 -0.000020
												CHANNELS 6 Xposition Yposition Zposition Xrotation Yrotation Zrotation
												End Site
												{
													OFFSET -277.218445 0.000000 -0.050231
												}
											}
										}
									}
								}
								JOINT mixamorig:RightHandMiddle1
								{
									OFFSET -9.532516 -0.000031 -0.000023
									CHANNELS 6 Xposition Yposition Zposition Xrotation Yrotation Zrotation
									JOINT mixamorig:RightHandMiddle2
									{
										OFFSET -3.700005 -0.000015 0.003713
										CHANNELS 6 Xposition Yposition Zposition Xrotation Yrotation Zrotation
										JOINT mixamorig:RightHandMiddle3
										{
											OFFSET -2.949974 0.000015 -0.002054
											CHANNELS 6 Xposition Yposition Zposition Xrotation Yrotation Zrotation
											JOINT mixamorig:RightHandMiddle4
											{
												OFFSET -2.946640 0.000000 -0.000156
												CHANNELS 6 Xposition Yposition Zposition Xrotation Yrotation Zrotation
												End Site
												{
													OFFSET -294.664337 0.000000 -0.113670
												}
											}
										}
									}
								}
								JOINT mixamorig:RightHandRing1
								{
									OFFSET -9.103600 -0.043076 -1.865134
									CHANNELS 6 Xposition Yposition Zposition Xrotation Yrotation Zrotation
									JOINT mixamorig:RightHandRing2
									{
										OFFSET -3.379288 0.000000 -0.001055
										CHANNELS 6 Xposition Yposition Zposition Xrotation Yrotation Zrotation
										JOINT mixamorig:RightHandRing3
										{
											OFFSET -2.889687 -0.000015 0.000379
											CHANNELS 6 Xposition Yposition Zposition Xrotation Yrotation Zrotation
											JOINT mixamorig:RightHandRing4
											{
												OFFSET -2.638809 -0.000015 0.000941
												CHANNELS 6 Xposition Yposition Zposition Xrotation Yrotation Zrotation
												End Site
												{
													OFFSET -263.880371 0.000000 0.516020
												}
											}
										}
									}
								}
								JOINT mixamorig:RightHandPinky1
								{
									OFFSET -8.076683 -0.486710 -3.806280
									CHANNELS 6 Xposition Yposition Zposition Xrotation Yrotation Zrotation
									JOINT mixamorig:RightHandPinky2
									{
										OFFSET -3.600014 -0.000015 -0.003747
										CHANNELS 6 Xposition Yposition Zposition Xrotation Yrotation Zrotation
										JOINT mixamorig:RightHandPinky3
										{
											OFFSET -2.099983 0.000000 -0.005739
											CHANNELS 6 Xposition Yposition Zposition Xrotation Yrotation Zrotation
											JOINT mixamorig:RightHandPinky4
											{
												OFFSET -2.115768 -0.000031 -0.003680
												CHANNELS 6 Xposition Yposition Zposition Xrotation Yrotation Zrotation
												End Site
												{
													OFFSET -211.577087 0.000000 -0.350686
												}
											}
										}
									}
								}
							}
						}
					}
				}
				JOINT mixamorig:LeftShoulder
				{
					OFFSET 4.570447 11.014725 -2.160855
					CHANNELS 6 Xposition Yposition Zposition Xrotation Yrotation Zrotation
					JOINT mixamorig:LeftArm
					{
						OFFSET 10.592371 -0.524597 -2.232119
						CHANNELS 6 Xposition Yposition Zposition Xrotation Yrotation Zrotation
						JOINT mixamorig:LeftForeArm
						{
							OFFSET 27.841532 -0.000031 0.000026
							CHANNELS 6 Xposition Yposition Zposition Xrotation Yrotation Zrotation
							JOINT mixamorig:LeftHand
							{
								OFFSET 28.328846 -0.000061 0.000022
								CHANNELS 6 Xposition Yposition Zposition Xrotation Yrotation Zrotation
								JOINT mixamorig:LeftHandThumb1
								{
									OFFSET 2.466141 -1.576172 2.681732
									CHANNELS 6 Xposition Yposition Zposition Xrotation Yrotation Zrotation
									JOINT mixamorig:LeftHandThumb2
									{
										OFFSET 3.217812 -1.872070 1.916482
										CHANNELS 6 Xposition Yposition Zposition Xrotation Yrotation Zrotation
										JOINT mixamorig:LeftHandThumb3
										{
											OFFSET 2.656029 -1.528778 1.514513
											CHANNELS 6 Xposition Yposition Zposition Xrotation Yrotation Zrotation
											JOINT mixamorig:LeftHandThumb4
											{
												OFFSET 2.020889 -1.154053 1.115139
												CHANNELS 6 Xposition Yposition Zposition Xrotation Yrotation Zrotation
												End Site
												{
													OFFSET 190.885437 -115.081749 130.048782
												}
											}
										}
									}
								}
								JOINT mixamorig:LeftHandIndex1
								{
									OFFSET 9.109314 -0.518021 2.259871
									CHANNELS 6 Xposition Yposition Zposition Xrotation Yrotation Zrotation
									JOINT mixamorig:LeftHandIndex2
									{
										OFFSET 3.699989 0.000000 -0.000322
										CHANNELS 6 Xposition Yposition Zposition Xrotation Yrotation Zrotation
										JOINT mixamorig:LeftHandIndex3
										{
											OFFSET 2.850006 0.000000 0.000352
											CHANNELS 6 Xposition Yposition Zposition Xrotation Yrotation Zrotation
											JOINT mixamorig:LeftHandIndex4
											{
												OFFSET 2.774864 -0.000031 -0.000027
												CHANNELS 6 Xposition Yposition Zposition Xrotation Yrotation Zrotation
												End Site
												{
													OFFSET 277.486267 0.000000 -0.009857
												}
											}
										}
									}
								}
								JOINT mixamorig:LeftHandMiddle1
								{
									OFFSET 9.533394 0.000061 0.000044
									CHANNELS 6 Xposition Yposition Zposition Xrotation Yrotation Zrotation
									JOINT mixamorig:LeftHandMiddle2
									{
										OFFSET 3.699989 -0.000015 -0.000231
										CHANNELS 6 Xposition Yposition Zposition Xrotation Yrotation Zrotation
										JOINT mixamorig:LeftHandMiddle3
										{
											OFFSET 2.949997 -0.000015 -0.000059
											CHANNELS 6 Xposition Yposition Zposition Xrotation Yrotation Zrotation
											JOINT mixamorig:LeftHandMiddle4
											{
												OFFSET 2.952896 0.000031 0.000063
												CHANNELS 6 Xposition Yposition Zposition Xrotation Yrotation Zrotation
												End Site
												{
													OFFSET 295.289337 0.000000 0.022810
												}
											}
										}
									}
								}
								JOINT mixamorig:LeftHandRing1
								{
									OFFSET 9.104523 -0.042999 -1.865074
									CHANNELS 6 Xposition Yposition Zposition Xrotation Yrotation Zrotation
									JOINT mixamorig:LeftHandRing2
									{
										OFFSET 3.150009 -0.000031 0.000043
										CHANNELS 6 Xposition Yposition Zposition Xrotation Yrotation Zrotation
										JOINT mixamorig:LeftHandRing3
										{
											OFFSET 2.949982 -0.000015 0.000040
											CHANNELS 6 Xposition Yposition Zposition Xrotation Yrotation Zrotation
											JOINT mixamorig:LeftHandRing4
											{
												OFFSET 2.644348 0.000000 0.000057
												CHANNELS 6 Xposition Yposition Zposition Xrotation Yrotation Zrotation
												End Site
												{
													OFFSET 264.434631 0.000000 0.012105
												}
											}
										}
									}
								}
								JOINT mixamorig:LeftHandPinky1
								{
									OFFSET 8.077789 -0.486847 -3.806259
									CHANNELS 6 Xposition Yposition Zposition Xrotation Yrotation Zrotation
									JOINT mixamorig:LeftHandPinky2
									{
										OFFSET 3.599953 0.000031 0.014727
										CHANNELS 6 Xposition Yposition Zposition Xrotation Yrotation Zrotation
										JOINT mixamorig:LeftHandPinky3
										{
											OFFSET 2.100021 0.000015 0.007705
											CHANNELS 6 Xposition Yposition Zposition Xrotation Yrotation Zrotation
											JOINT mixamorig:LeftHandPinky4
											{
												OFFSET 2.125504 0.000031 0.007517
												CHANNELS 6 Xposition Yposition Zposition Xrotation Yrotation Zrotation
												End Site
												{
													OFFSET 212.550781 0.000000 0.625752
												}
											}
										}
									}
								}
							}
						}
					}
				}
			}
		}
	}
	JOINT mixamorig:RightUpLeg
	{
		OFFSET -8.207787 -6.751648 -1.599560
		CHANNELS 6 Xposition Yposition Zposition Xrotation Yrotation Zrotation
		JOINT mixamorig:RightLeg
		{
			OFFSET -0.000002 -44.370117 0.345942
			CHANNELS 6 Xposition Yposition Zposition Xrotation Yrotation Zrotation
			JOINT mixamorig:RightFoot
			{
				OFFSET 0.000003 -44.423679 -3.043532
				CHANNELS 6 Xposition Yposition Zposition Xrotation Yrotation Zrotation
				JOINT mixamorig:RightToeBase
				{
					OFFSET -0.000002 -8.728671 10.710558
					CHANNELS 6 Xposition Yposition Zposition Xrotation Yrotation Zrotation
					JOINT mixamorig:RightToe_End
					{
						OFFSET -0.000001 -0.000679 9.278119
						CHANNELS 6 Xposition Yposition Zposition Xrotation Yrotation Zrotation
						End Site
						{
							OFFSET 0.000000 -0.067690 927.812134
						}
					}
				}
			}
		}
	}
	JOINT mixamorig:LeftUpLeg
	{
		OFFSET 8.207793 -6.751686 -1.599556
		CHANNELS 6 Xposition Yposition Zposition Xrotation Yrotation Zrotation
		JOINT mixamorig:LeftLeg
		{
			OFFSET -0.000004 -44.370014 0.346954
			CHANNELS 6 Xposition Yposition Zposition Xrotation Yrotation Zrotation
			JOINT mixamorig:LeftFoot
			{
				OFFSET -0.000001 -44.423672 -3.044401
				CHANNELS 6 Xposition Yposition Zposition Xrotation Yrotation Zrotation
				JOINT mixamorig:LeftToeBase
				{
					OFFSET -0.000002 -8.728669 10.710558
					CHANNELS 6 Xposition Yposition Zposition Xrotation Yrotation Zrotation
					JOINT mixamorig:LeftToe_End
					{
						OFFSET -0.000003 -0.000679 9.278133
						CHANNELS 6 Xposition Yposition Zposition Xrotation Yrotation Zrotation
						End Site
						{
							OFFSET 0.000000 -0.068021 927.813477
						}
					}
				}
			}
		}
	}
}
MOTION
Frames: 3
Frame Time: 0.033333
0.000006 104.270477 1.554256 0.000010 0.000003 -0.000113 -0.000005 10.181587 0.131522 0.000001 -0.000003 0.000084 -0.000000 9.893967 -1.470711 0.000001 0.000000 -0.000000 -0.000000 9.220802 -1.370642 0.000000 -0.000000 -0.000000 0.000001 16.740433 -2.049030 0.000000 -0.000000 -0.000000 0.000000 9.617859 1.685014 0.000000 0.000000 0.000000 0.000002 22.037384 7.501101 0.000000 -0.000000 0.000000 -4.569968 11.014880 -2.160881 0.000008 0.000001 -0.000038 -10.592854 -0.524803 -2.231830 75.146568 43.119520 -33.817172 -27.841526 0.000009 0.000564 -50.790892 109.253049 67.539335 -28.328814 0.000021 0.000032 -0.000321 -0.000046 0.000007 -2.464396 -1.573833 2.682325 -43.869957 -154.439320 -1.668655 -3.215195 -1.872465 1.924600 141.677057 32.946213 46.343431 -2.654948 -1.527851 1.513048 150.444561 28.217018 -20.698173 -2.018837 -1.152001 1.108053 -0.000002 0.000003 -0.000000 -9.108366 -0.517563 2.260178 112.881136 14.679569 -22.045940 -3.700073 0.000324 0.001577 109.422704 12.926113 -18.154399 -2.850082 0.000358 -0.000198 109.333966 10.582126 -14.884403 -2.772171 0.000001 -0.000019 0.000001 0.000002 -0.000000 -9.532596 0.000259 0.000293 106.571319 15.942952 -21.458967 -3.700076 0.000295 0.004030 107.348642 13.482501 -18.135394 -2.950049 0.000323 -0.001761 109.907306 11.834992 -16.801488 -2.946617 0.000013 -0.000151 -0.000001 -0.000000 0.000000 -9.103702 -0.042772 -1.864804 104.986080 19.263888 -24.878105 -3.379337 0.000316 -0.000742 108.704441 12.042895 -16.758725 -2.889781 0.000340 0.000710 114.584804 7.979958 -12.470261 -2.638803 0.000012 0.000937 0.000002 0.000003 0.000000 -8.076759 -0.486405 -3.805970 96.211616 20.913245 -23.078664 -3.600049 0.000284 -0.003475 97.194862 10.419707 -11.396345 -2.100014 0.000319 -0.005429 101.084546 5.133595 -5.970304 -2.115769 -0.000039 -0.003679 0.000001 -0.000002 -0.000006 4.570446 11.014691 -2.160851 -0.000018 0.000010 -0.000021 10.592503 -0.524569 -2.232363 44.242489 -70.465026 32.036869 27.841717 -0.000092 -0.000077 66.094996 -108.080879 83.770713 28.328831 -0.000028 0.000028 0.000020 -0.000087 -0.000000 2.466129 -1.576191 2.681844 131.157268 146.380161 -166.803697 3.217826 -1.872005 1.916501 -81.777998 43.199543 33.955042 2.656003 -1.528795 1.514593 -141.915840 49.679630 84.440174 2.020888 -1.154079 1.115132 -0.000001 0.000004 0.000001 9.109081 -0.517740 2.259993 -163.524837 -11.601540 -70.103901 3.700120 0.000105 -0.000310 -202.529944 -19.516443 -278.308461 2.850094 0.000234 0.000247 -244.268574 -14.691331 -336.806327 2.774906 -0.000033 -0.000015 0.000003 0.000003 0.000001 9.533119 0.000296 0.000127 -174.470257 -6.208861 -96.642157 3.700080 0.000253 -0.000324 -237.511578 -12.821850 23.138714 2.950052 0.000174 -0.000216 86.725760 -8.812147 8.326852 2.952864 -0.000030 0.000066 0.000002 0.000000 0.000001 9.104295 -0.042956 -1.865006 -178.194677 -5.411917 -143.108022 3.150028 0.000301 -0.000094 -247.622662 -3.740212 5.584683 2.949998 0.000195 -0.000134 82.570731 -2.065746 1.815261 2.644317 0.000047 0.000054 -0.000001 0.000001 0.000000 8.077497 -0.486676 -3.806190 -176.974723 -4.186179 -106.235335 3.599931 0.000328 0.014539 -72.305544 173.162385 171.154159 2.099971 0.000243 0.007510 85.719598 7.522620 -6.657275 2.125480 -0.000031 0.007503 -0.000001 0.000002 -0.000000 -8.207786 -6.751667 -1.599560 -0.077001 -0.000003 0.000080 -0.000002 -44.370110 0.345938 0.153719 -0.000000 -0.000000 0.000000 -44.423679 -3.043532 -0.076700 0.000000 -0.000002 -0.000006 -8.728667 10.710559 -0.000009 -0.000000 -0.000000 -0.000001 -0.000679 9.278123 0.000000 -0.000000 -0.000000 8.207792 -6.751710 -1.599556 -0.074518 -0.000003 0.000081 -0.000002 -44.370014 0.346960 0.148822 0.000002 0.000000 -0.000001 -44.423664 -3.044403 -0.074314 0.000000 -0.000002 -0.000004 -8.728671 10.710558 0.000007 -0.000000 -0.000000 0.000000 -0.000680 9.278137 -0.000000 0.000000 -0.000001 
0.000006 104.270477 1.554256 0.000010 0.000003 -0.000113 -0.000005 10.181587 0.131522 0.000001 -0.000003 0.000084 -0.000000 9.893967 -1.470711 0.000001 0.000000 -0.000000 -0.000000 9.220802 -1.370642 0.000000 -0.000000 -0.000000 0.000001 16.740433 -2.049030 0.000000 -0.000000 -0.000000 0.000000 9.617859 1.685014 0.000000 0.000000 0.000000 0.000002 22.037384 7.501101 0.000000 -0.000000 0.000000 -4.569968 11.014880 -2.160881 0.000008 0.000001 -0.000038 -10.592866 -0.524796 -2.231869 74.875136 38.120525 -29.632789 -27.841526 0.000008 0.000576 -51.223793 111.311620 70.105000 -28.328817 0.000021 0.000029 -0.000321 -0.000044 0.000005 -2.464396 -1.573820 2.682327 -43.865357 -154.208528 -1.703415 -3.215201 -1.872439 1.924603 141.086655 32.872628 49.104545 -2.654958 -1.527853 1.513051 150.668905 28.174623 -20.928415 -2.018826 -1.152001 1.108064 -0.000003 -0.000001 0.000002 -9.108380 -0.517564 2.260196 112.793949 14.545474 -21.812612 -3.700084 0.000316 0.001576 109.156900 12.439065 -17.390302 -2.850070 0.000363 -0.000198 108.476115 10.003171 -13.855360 -2.772163 -0.000013 -0.000018 -0.000002 0.000004 -0.000000 -9.532584 0.000256 0.000299 106.903437 15.534060 -21.042370 -3.700058 0.000302 0.004054 107.681375 12.576659 -17.019667 -2.950078 0.000326 -0.001726 109.747131 11.237281 -15.911457 -2.946626 0.000003 -0.000149 -0.000003 -0.000002 0.000001 -9.103699 -0.042766 -1.864796 104.846061 18.359671 -23.663708 -3.379333 0.000308 -0.000722 109.294201 10.952827 -15.417781 -2.889766 0.000341 0.000712 115.153807 7.157659 -11.319375 -2.638812 -0.000012 0.000940 -0.000001 -0.000004 -0.000002 -8.076756 -0.486396 -3.805979 94.987379 19.706692 -21.294107 -3.600047 0.000276 -0.003466 97.906507 9.671448 -10.685422 -2.100008 0.000326 -0.005426 102.836127 4.543813 -5.423141 -2.115786 -0.000041 -0.003681 -0.000000 0.000001 -0.000002 4.570446 11.014691 -2.160851 -0.000018 0.000010 -0.000021 10.592497 -0.524577 -2.232361 41.527174 -69.675716 29.564491 27.841713 -0.000064 -0.000076 66.870305 -108.418741 84.966187 28.328833 -0.000028 0.000019 0.000025 -0.000090 -0.000000 2.466123 -1.576211 2.681810 144.798467 153.232166 -173.163956 3.217803 -1.872016 1.916515 -67.498723 43.413799 25.177906 2.655990 -1.528811 1.514608 -122.936384 54.824566 70.367737 2.020891 -1.154054 1.115132 0.000000 -0.000000 0.000003 9.109232 -0.517650 2.260014 -153.919488 -5.408525 -23.020785 3.700139 0.000122 -0.000299 -194.666252 -11.195270 -285.292876 2.850055 0.000311 0.000263 -228.423874 -6.860996 -344.816144 2.774887 -0.000046 -0.000028 0.000002 -0.000000 0.000000 9.533307 0.000416 0.000192 -155.144387 -6.481431 -28.797017 3.700130 0.000201 -0.000235 -210.146343 -16.667673 57.075059 2.950089 0.000275 -0.000144 126.924558 -11.779376 23.347917 2.952881 -0.000014 0.000058 -0.000001 0.000000 -0.000000 9.104408 -0.042687 -1.864925 -150.976031 -8.450458 -31.863485 3.150142 0.000189 0.000040 -206.380381 -14.663410 57.540594 2.950035 0.000280 -0.000027 133.846190 -9.610612 22.327369 2.644334 0.000045 0.000058 -0.000000 0.000001 -0.000001 8.077721 -0.486593 -3.806039 -125.647982 -8.050210 -16.341882 3.599832 0.000399 0.014947 34.905989 188.934138 151.190294 2.099887 0.000408 0.007858 205.085569 -5.777797 -26.850857 2.125504 -0.000003 0.007518 -0.000000 -0.000000 -0.000000 -8.207786 -6.751667 -1.599560 -0.077001 -0.000003 0.000080 -0.000002 -44.370110 0.345938 0.153719 -0.000000 -0.000000 0.000000 -44.423679 -3.043532 -0.076700 0.000000 -0.000002 -0.000006 -8.728667 10.710559 -0.000009 -0.000000 -0.000000 -0.000001 -0.000679 9.278123 0.000000 -0.000000 -0.000000 8.207792 -6.751710 -1.599556 -0.074518 -0.000003 0.000081 -0.000002 -44.370014 0.346960 0.148822 0.000002 0.000000 -0.000001 -44.423664 -3.044403 -0.074314 0.000000 -0.000002 -0.000004 -8.728671 10.710558 0.000007 -0.000000 -0.000000 0.000000 -0.000680 9.278137 -0.000000 0.000000 -0.000001 
0.000006 104.270477 1.554256 0.000010 0.000003 -0.000113 -0.000005 10.181587 0.131522 0.000001 -0.000003 0.000084 -0.000000 9.893967 -1.470711 0.000001 0.000000 -0.000000 -0.000000 9.220802 -1.370642 0.000000 -0.000000 -0.000000 0.000001 16.740433 -2.049030 0.000000 -0.000000 -0.000000 0.000000 9.617859 1.685014 0.000000 0.000000 0.000000 0.000002 22.037384 7.501101 0.000000 -0.000000 0.000000 -4.569968 11.014880 -2.160881 0.000008 0.000001 -0.000038 -10.592876 -0.524766 -2.231887 74.589279 30.176664 -23.207883 -27.841509 0.000012 0.000565 -51.351917 111.057845 70.003490 -28.328827 0.000006 0.000025 -0.000318 -0.000043 0.000003 -2.464384 -1.573826 2.682327 -43.617349 -154.048428 -1.197651 -3.215190 -1.872464 1.924602 140.971607 32.877655 49.937262 -2.654973 -1.527855 1.513058 150.953929 27.996942 -22.226769 -2.018830 -1.151983 1.108059 -0.000002 -0.000002 0.000000 -9.108368 -0.517568 2.260188 112.555712 14.589959 -21.782202 -3.700063 0.000312 0.001550 109.413545 12.560580 -17.641352 -2.850081 0.000371 -0.000214 108.992163 10.356256 -14.477651 -2.772167 -0.000015 -0.000018 -0.000002 0.000001 -0.000002 -9.532574 0.000266 0.000300 106.773308 15.963571 -21.563636 -3.700062 0.000299 0.004034 107.499774 12.939063 -17.452598 -2.950037 0.000332 -0.001733 109.789171 11.521862 -16.324471 -2.946613 0.000013 -0.000156 0.000001 0.000002 0.000001 -9.103693 -0.042766 -1.864813 105.524251 18.972483 -24.738081 -3.379353 0.000316 -0.000745 109.506401 11.033424 -15.590737 -2.889769 0.000326 0.000720 115.280138 7.329738 -11.616957 -2.638809 -0.000000 0.000936 -0.000001 -0.000000 0.000000 -8.076761 -0.486392 -3.805993 95.404335 20.769287 -22.605729 -3.600049 0.000280 -0.003470 98.380098 10.126259 -11.297535 -2.100002 0.000319 -0.005453 103.384947 4.882111 -5.903070 -2.115775 -0.000054 -0.003678 -0.000001 -0.000001 -0.000004 4.570446 11.014691 -2.160851 -0.000018 0.000010 -0.000021 10.592497 -0.524560 -2.232369 46.409247 -66.914824 31.633864 27.841717 -0.000065 -0.000074 65.057176 -110.526620 85.215803 28.328833 -0.000013 0.000034 0.000020 -0.000090 -0.000000 2.466139 -1.576185 2.681876 123.568518 145.483466 -162.822107 3.217817 -1.872025 1.916525 -94.229672 45.877998 42.980113 2.655987 -1.528827 1.514616 -154.932651 45.322933 94.476952 2.020895 -1.154070 1.115135 0.000004 0.000002 0.000004 9.109045 -0.517881 2.259986 -173.463541 -11.782409 -122.112977 3.700095 0.000168 -0.000422 -245.956314 -24.331089 -323.215152 2.850039 0.000144 0.000201 -288.247425 -13.167822 -350.457334 2.774888 -0.000062 -0.000013 0.000005 -0.000001 -0.000000 9.533273 0.000011 0.000124 -180.500521 -6.356919 -189.133020 3.700068 0.000249 -0.000329 -248.109627 -13.618809 20.033747 2.950042 0.000153 -0.000219 77.758664 -9.487121 7.657906 2.952870 -0.000032 0.000057 0.000002 0.000003 -0.000002 9.104564 -0.043034 -1.865000 -183.502854 -7.796254 131.691443 3.150026 0.000266 -0.000096 -246.650507 -9.057406 13.740597 2.949999 0.000179 -0.000107 83.710115 -5.221981 4.680109 2.644329 0.000016 0.000068 -0.000000 0.000002 0.000001 8.077822 -0.486883 -3.806182 -184.783501 -9.059230 131.329580 3.599958 0.000328 0.014546 -69.436618 178.415060 178.307006 2.099977 0.000250 0.007493 92.372175 6.789645 -6.705278 2.125501 -0.000015 0.007521 0.000001 -0.000002 0.000001 -8.207786 -6.751667 -1.599560 -0.077001 -0.000003 0.000080 -0.000002 -44.370110 0.345938 0.153719 -0.000000 -0.000000 0.000000 -44.423679 -3.043532 -0.076700 0.000000 -0.000002 -0.000006 -8.728667 10.710559 -0.000009 -0.000000 -0.000000 -0.000001 -0.000679 9.278123 0.000000 -0.000000 -0.000000 8.207792 -6.751710 -1.599556 -0.074518 -0.000003 0.000081 -0.000002 -44.370014 0.346960 0.148822 0.000002 0.000000 -0.000001 -44.423664 -3.044403 -0.074314 0.000000 -0.000002 -0.000004 -8.728671 10.710558 0.000007 -0.000000 -0.000000 0.000000 -0.000680 9.278137 -0.000000 0.000000 -0.000001 
